<svg xmlns="http://www.w3.org/2000/svg" width="78" height="78" viewBox="0 0 78 78">
  <g id="Grupo_8" data-name="Grupo 8" transform="translate(-2157 -451)">
    <rect id="Retângulo_27" data-name="Retângulo 27" width="78" height="78" transform="translate(2157 451)" fill="#22d1c1"/>
    <path id="Caminho_20" data-name="Caminho 20" d="M2292.735,379.051s.427-2.772-2.294-3.04-2.878,2.811-2.878,2.811-2,25.662-5.74,35.414-5.144,8.464-7.1,8.535-2.847,4.433.624,4.836,5.732-.007,10.086-8.007S2292.735,379.051,2292.735,379.051Z" transform="translate(-98.84 84.883)" fill="#fff"/>
    <path id="Caminho_21" data-name="Caminho 21" d="M2315.716,462.606c2.713-1.764,1.85-3.108,1.54-3.794a2.535,2.535,0,0,0-3.371-1c-1.872.729-7.873,3.971-21.068-4.431s-18.52-15.08-25.078-14.316-9.673,6.071-8.438,12.111,8.857,6.676,8.857,6.676-2.38-1.247-1.932-2.729a3.827,3.827,0,0,1,1.932-2.147s-4.167-.633-3.962-4.233,2.871-5.118,6.438-4.22,19.319,15.3,29.444,18.365S2315.716,462.606,2315.716,462.606Z" transform="translate(-92.137 54.64)" fill="#107a87"/>
  </g>
</svg>
