<svg xmlns="http://www.w3.org/2000/svg" width="78" height="78" viewBox="0 0 78 78">
  <g id="Grupo_5" data-name="Grupo 5" transform="translate(-0.246 0.11)">
    <rect id="Ret창ngulo_23" data-name="Ret창ngulo 23" width="78" height="78" transform="translate(0.246 -0.11)" fill="#bd86f4"/>
    <rect id="Ret창ngulo_24" data-name="Ret창ngulo 24" width="66" height="66" transform="translate(6.246 5.89)" fill="#252653"/>
    <path id="Caminho_14" data-name="Caminho 14" d="M23.086-59.719H10.47l-2.4,7.2H.42l13-34.922h6.668L33.16-52.523H25.509ZM12.413-65.547h8.731L16.754-78.619Zm35.5,13.5a12.74,12.74,0,0,1-9.294-3.5,12.447,12.447,0,0,1-3.586-9.33v-.672a15.677,15.677,0,0,1,1.511-6.992,11.089,11.089,0,0,1,4.281-4.749,12.017,12.017,0,0,1,6.32-1.667A10.77,10.77,0,0,1,55.526-75.6q3.058,3.358,3.058,9.522v2.83H42.058a6.439,6.439,0,0,0,2.027,4.077,6.127,6.127,0,0,0,4.281,1.535,7.482,7.482,0,0,0,6.26-2.9l3.406,3.814a10.406,10.406,0,0,1-4.221,3.442A13.85,13.85,0,0,1,47.911-52.044Zm-.792-21.3a4.341,4.341,0,0,0-3.346,1.391A7.187,7.187,0,0,0,42.13-67.97h9.642v-.552a5.124,5.124,0,0,0-1.247-3.562A4.48,4.48,0,0,0,47.119-73.342Z" transform="translate(8.933 109.232)" fill="#bd86f4"/>
  </g>
</svg>
