<svg xmlns="http://www.w3.org/2000/svg" width="78" height="78" viewBox="0 0 78 78">
  <g id="Grupo_6" data-name="Grupo 6" transform="translate(-0.062 -0.012)">
    <rect id="Ret창ngulo_25" data-name="Ret창ngulo 25" width="78" height="78" transform="translate(0.062 0.012)" fill="#22c8fd"/>
    <rect id="Ret창ngulo_26" data-name="Ret창ngulo 26" width="66" height="66" transform="translate(6.062 6.012)" fill="#011d26"/>
    <path id="Caminho_15" data-name="Caminho 15" d="M15-64.828v12.3h-7.2V-87.445H21.431a15.762,15.762,0,0,1,6.92,1.439,10.6,10.6,0,0,1,4.593,4.089,11.4,11.4,0,0,1,1.607,6.032,10.027,10.027,0,0,1-3.514,8.095q-3.514,2.962-9.726,2.962Zm0-5.828h6.428A6.32,6.32,0,0,0,25.784-72a4.885,4.885,0,0,0,1.5-3.838,5.76,5.76,0,0,0-1.511-4.149A5.645,5.645,0,0,0,21.6-81.617H15ZM53.091-59.695a2.233,2.233,0,0,0-1.259-2A14.3,14.3,0,0,0,47.79-63q-9.258-1.943-9.258-7.867A7.131,7.131,0,0,1,41.4-76.64a11.562,11.562,0,0,1,7.5-2.315,12.444,12.444,0,0,1,7.9,2.327,7.332,7.332,0,0,1,2.962,6.044H52.827a3.354,3.354,0,0,0-.959-2.458,4.06,4.06,0,0,0-3-.971,4.149,4.149,0,0,0-2.71.792,2.5,2.5,0,0,0-.959,2.015,2.136,2.136,0,0,0,1.091,1.859,11.227,11.227,0,0,0,3.682,1.223,30.071,30.071,0,0,1,4.365,1.163q5.493,2.015,5.493,6.98a6.769,6.769,0,0,1-3.046,5.744,13.14,13.14,0,0,1-7.867,2.195,13.724,13.724,0,0,1-5.792-1.163,9.719,9.719,0,0,1-3.969-3.19,7.412,7.412,0,0,1-1.439-4.377h6.572a3.619,3.619,0,0,0,1.367,2.83,5.423,5.423,0,0,0,3.406.983,5.019,5.019,0,0,0,3.01-.756A2.351,2.351,0,0,0,53.091-59.695Z" transform="translate(4.496 109.098)" fill="#22c8fd"/>
  </g>
</svg>
